<svg width="25" height="25" viewBox="0 0 25 25" fill="none" xmlns="http://www.w3.org/2000/svg">
<path d="M12.5 25C5.60741 25 0 19.3926 0 12.5C0 5.60741 5.60741 0 12.5 0C19.3926 0 25 5.60741 25 12.5C25 19.3926 19.3926 25 12.5 25ZM12.5 1.78566C6.59218 1.78566 1.78566 6.59218 1.78566 12.5C1.78566 18.4078 6.59218 23.2143 12.5 23.2143C18.4078 23.2143 23.2143 18.4078 23.2143 12.5C23.2143 6.59218 18.4078 1.78566 12.5 1.78566Z" fill="#CDC5C5"/>
<path d="M16.9643 17.8572C16.7358 17.8572 16.5073 17.77 16.3329 17.5955L7.40446 8.66699C7.05561 8.31813 7.05561 7.75318 7.40446 7.40451C7.75313 7.05585 8.31827 7.05566 8.66694 7.40451L17.5954 16.333C17.9443 16.6819 17.9443 17.2468 17.5954 17.5955C17.4211 17.77 17.1928 17.8572 16.9643 17.8572Z" fill="#CDC5C5"/>
<path d="M8.0356 17.8572C7.8071 17.8572 7.57879 17.77 7.40446 17.5955C7.05561 17.2468 7.05561 16.6817 7.40446 16.333L16.333 7.40451C16.6818 7.05565 17.2468 7.05565 17.5954 7.40451C17.9441 7.75317 17.9443 8.31832 17.5954 8.66698L8.66694 17.5955C8.49261 17.77 8.2641 17.8572 8.0356 17.8572Z" fill="#CDC5C5"/>
</svg>
