<svg width="8" height="8" viewBox="0 0 8 8" fill="none" xmlns="http://www.w3.org/2000/svg">
<g clip-path="url(#clip0)">
<path d="M4.44172 4.00078L7.90823 0.534251C8.03028 0.412204 8.03028 0.214329 7.90823 0.092298C7.78618 -0.0297331 7.58831 -0.0297488 7.46628 0.092298L3.99975 3.55883L0.533243 0.092298C0.411197 -0.0297488 0.213322 -0.0297488 0.0912908 0.092298C-0.0307402 0.214345 -0.0307558 0.41222 0.0912908 0.534251L3.5578 4.00076L0.0912908 7.46729C-0.0307558 7.58934 -0.0307558 7.78722 0.0912908 7.90925C0.152306 7.97026 0.232291 8.00076 0.312275 8.00076C0.392259 8.00076 0.472228 7.97026 0.533259 7.90925L3.99975 4.44273L7.46626 7.90925C7.52728 7.97026 7.60726 8.00076 7.68725 8.00076C7.76723 8.00076 7.8472 7.97026 7.90823 7.90925C8.03028 7.7872 8.03028 7.58932 7.90823 7.46729L4.44172 4.00078Z" fill="black"/>
</g>
<defs>
<clipPath id="clip0">
<rect width="8" height="8" fill="white"/>
</clipPath>
</defs>
</svg>
