<svg width="22" height="21" viewBox="0 0 22 21" fill="none" xmlns="http://www.w3.org/2000/svg">
<g clip-path="url(#clip0)">
<path d="M19.7712 0.641754H2.37129C1.7755 0.642112 1.29251 1.12534 1.29263 1.72137V19.1213C1.29299 19.7171 1.77622 20.2001 2.37225 20.1999H11.7402V12.6364H9.19995V9.67596H11.7402V7.49727C11.7402 4.97072 13.2826 3.59554 15.5364 3.59554C16.6159 3.59554 17.5436 3.676 17.814 3.71193V6.35259H16.2598C15.0336 6.35259 14.7962 6.93526 14.7962 7.79045V9.67596H17.728L17.346 12.6364H14.7962V20.1999H19.7712C20.3674 20.2001 20.8507 19.717 20.8508 19.1208C20.8508 19.1207 20.8508 19.1206 20.8508 19.1203V1.72041C20.8506 1.12462 20.3672 0.641635 19.7712 0.641754Z" fill="#FCF1F1"/>
</g>
<defs>
<clipPath id="clip0">
<rect width="20.8621" height="20.8621" fill="white" transform="translate(0.650879)"/>
</clipPath>
</defs>
</svg>
