<svg width="22" height="21" viewBox="0 0 22 21" fill="none" xmlns="http://www.w3.org/2000/svg">
<g clip-path="url(#clip0)">
<path d="M21.1175 6.13351C21.0687 5.02502 20.8894 4.26295 20.6326 3.60261C20.3677 2.90167 19.9602 2.27412 19.4262 1.75243C18.9046 1.22263 18.2729 0.810945 17.5801 0.550182C16.9159 0.293398 16.1578 0.114144 15.0493 0.0652704C13.9326 0.0122581 13.578 0 10.7456 0C7.91321 0 7.55868 0.0122581 6.44606 0.0611313C5.33758 0.110004 4.57551 0.289418 3.91532 0.546043C3.21422 0.810945 2.58667 1.21849 2.06499 1.75243C1.53518 2.27412 1.12366 2.90581 0.862742 3.59863C0.605959 4.26295 0.426704 5.02088 0.377831 6.12937C0.324819 7.24613 0.312561 7.60066 0.312561 10.4331C0.312561 13.2655 0.324819 13.62 0.373692 14.7326C0.422565 15.8411 0.601979 16.6032 0.858762 17.2635C1.12366 17.9645 1.53518 18.592 2.06499 19.1137C2.58667 19.6435 3.21836 20.0552 3.91118 20.316C4.57551 20.5727 5.33344 20.752 6.44208 20.8009C7.55454 20.8499 7.90923 20.862 10.7416 20.862C13.574 20.862 13.9286 20.8499 15.0412 20.8009C16.1497 20.752 16.9117 20.5727 17.5719 20.316C18.974 19.7739 20.0825 18.6654 20.6245 17.2635C20.8811 16.5992 21.0605 15.8411 21.1094 14.7326C21.1583 13.62 21.1706 13.2655 21.1706 10.4331C21.1706 7.60066 21.1664 7.24613 21.1175 6.13351ZM19.2389 14.6511C19.194 15.67 19.0228 16.2202 18.8802 16.587C18.5297 17.4958 17.8083 18.2171 16.8995 18.5677C16.5327 18.7103 15.9785 18.8814 14.9637 18.9262C13.8633 18.9752 13.5333 18.9873 10.7498 18.9873C7.96622 18.9873 7.63207 18.9752 6.53568 18.9262C5.51683 18.8814 4.96665 18.7103 4.59986 18.5677C4.14759 18.4005 3.73591 18.1356 3.40176 17.7892C3.05535 17.4509 2.79044 17.0434 2.62329 16.5911C2.48065 16.2243 2.30951 15.67 2.26478 14.6553C2.21575 13.5549 2.20365 13.2247 2.20365 10.4412C2.20365 7.65765 2.21575 7.3235 2.26478 6.22727C2.30951 5.20842 2.48065 4.65824 2.62329 4.29145C2.79044 3.83901 3.05535 3.42749 3.40589 3.09318C3.74403 2.74677 4.15157 2.48187 4.604 2.31487C4.97079 2.17223 5.52511 2.00109 6.53982 1.9562C7.64018 1.90733 7.97036 1.89507 10.7537 1.89507C13.5414 1.89507 13.8714 1.90733 14.9678 1.9562C15.9867 2.00109 16.5368 2.17223 16.9036 2.31487C17.3559 2.48187 17.7676 2.74677 18.1017 3.09318C18.4481 3.43147 18.713 3.83901 18.8802 4.29145C19.0228 4.65824 19.194 5.2124 19.2389 6.22727C19.2877 7.32763 19.3 7.65765 19.3 10.4412C19.3 13.2247 19.2877 13.5508 19.2389 14.6511Z" fill="#FCF1F1"/>
<path d="M10.7456 5.07388C7.78693 5.07388 5.38641 7.47424 5.38641 10.4331C5.38641 13.3919 7.78693 15.7922 10.7456 15.7922C13.7044 15.7922 16.1048 13.3919 16.1048 10.4331C16.1048 7.47424 13.7044 5.07388 10.7456 5.07388ZM10.7456 13.9094C8.82616 13.9094 7.26922 12.3526 7.26922 10.4331C7.26922 8.51347 8.82616 6.95669 10.7456 6.95669C12.6652 6.95669 14.222 8.51347 14.222 10.4331C14.222 12.3526 12.6652 13.9094 10.7456 13.9094Z" fill="#FCF1F1"/>
<path d="M17.5679 4.862C17.5679 5.55291 17.0077 6.11312 16.3166 6.11312C15.6257 6.11312 15.0655 5.55291 15.0655 4.862C15.0655 4.17092 15.6257 3.61087 16.3166 3.61087C17.0077 3.61087 17.5679 4.17092 17.5679 4.862Z" fill="#FCF1F1"/>
</g>
<defs>
<clipPath id="clip0">
<rect width="20.8621" height="20.8621" fill="white" transform="translate(0.275879)"/>
</clipPath>
</defs>
</svg>
