<svg width="47" height="47" viewBox="0 0 47 47" fill="none" xmlns="http://www.w3.org/2000/svg">
<g clip-path="url(#clip0)">
<path d="M45.1641 21.6641H6.2828L12.7236 15.2544C13.4423 14.5391 13.4451 13.3767 12.7298 12.658C12.0145 11.9393 10.852 11.9366 10.1333 12.6518L0.540168 22.1987C0.539525 22.1992 0.539066 22.1999 0.538515 22.2004C-0.178327 22.9157 -0.180621 24.0819 0.538332 24.7996C0.538974 24.8001 0.539433 24.8008 0.539984 24.8013L10.1331 34.3482C10.8517 35.0633 12.0142 35.0608 12.7296 34.3419C13.4449 33.6233 13.4421 32.4608 12.7235 31.7456L6.2828 25.3359H45.1641C46.1781 25.3359 47 24.514 47 23.5C47 22.486 46.1781 21.6641 45.1641 21.6641Z" fill="#F1F1F1"/>
</g>
<defs>
<clipPath id="clip0">
<rect width="47" height="47" fill="white"/>
</clipPath>
</defs>
</svg>
