<svg width="30" height="30" viewBox="0 0 30 30" fill="none" xmlns="http://www.w3.org/2000/svg">
<g clip-path="url(#clip0)">
<path d="M22.1687 30C21.9957 30.0003 21.8296 29.9318 21.7071 29.8096L7.36277 15.4653C7.10824 15.2107 7.10824 14.798 7.36277 14.5434L21.7071 0.199027C21.9573 -0.0599654 22.37 -0.0671172 22.6291 0.183012C22.8881 0.433202 22.8952 0.845927 22.6451 1.10498C22.6398 1.11042 22.6345 1.11574 22.6291 1.121L8.74637 15.0037L22.6304 28.8864C22.8853 29.1407 22.8858 29.5535 22.6315 29.8085C22.5089 29.9314 22.3423 30.0003 22.1687 30Z" fill="#F44336"/>
<path d="M22.1687 30C21.9957 30.0003 21.8296 29.9318 21.7071 29.8096L7.36277 15.4653C7.10824 15.2107 7.10824 14.798 7.36277 14.5434L21.7071 0.199027C21.9573 -0.0599654 22.37 -0.0671172 22.6291 0.183012C22.8881 0.433202 22.8952 0.845927 22.6451 1.10498C22.6398 1.11042 22.6345 1.11574 22.6291 1.121L8.74637 15.0037L22.6304 28.8864C22.8853 29.1407 22.8858 29.5535 22.6315 29.8085C22.5089 29.9314 22.3423 30.0003 22.1687 30Z" fill="black"/>
</g>
<defs>
<clipPath id="clip0">
<rect width="30" height="30" fill="white"/>
</clipPath>
</defs>
</svg>
