<svg width="133" height="133" viewBox="0 0 133 133" fill="none" xmlns="http://www.w3.org/2000/svg">
<path d="M66.5 0C29.773 0 0 29.773 0 66.5C0 103.227 29.773 133 66.5 133C103.227 133 133 103.227 133 66.5C133 29.773 103.227 0 66.5 0ZM66.5 124.688C34.3639 124.688 8.3125 98.6361 8.3125 66.5C8.3125 34.3639 34.3639 8.3125 66.5 8.3125C98.6361 8.3125 124.688 34.3639 124.688 66.5C124.688 98.6361 98.6361 124.688 66.5 124.688Z" fill="black"/>
<path d="M76.0178 30.3406L42.7678 63.5906C41.1562 65.2118 41.1562 67.8297 42.7678 69.4509L76.0178 102.701L81.8781 96.7991L51.579 66.5L81.8781 36.2009L76.0178 30.3406Z" fill="black"/>
</svg>
