<svg width="127" height="127" viewBox="0 0 127 127" fill="none" xmlns="http://www.w3.org/2000/svg">
<path d="M63.5 0C28.4299 0 0 28.4299 0 63.5C0 98.5701 28.4299 127 63.5 127C98.5701 127 127 98.5701 127 63.5C127 28.4299 98.5701 0 63.5 0ZM63.5 119.062C32.8136 119.062 7.9375 94.1864 7.9375 63.5C7.9375 32.8136 32.8136 7.9375 63.5 7.9375C94.1864 7.9375 119.062 32.8136 119.062 63.5C119.062 94.1864 94.1864 119.062 63.5 119.062Z" fill="black"/>
<path d="M54.3718 28.9719L48.7759 34.5678L77.7478 63.5L48.8156 92.4719L54.4115 98.0678L86.1218 66.3178C87.6607 64.7698 87.6607 62.27 86.1218 60.7219L54.3718 28.9719Z" fill="black"/>
</svg>
