<svg width="30" height="30" viewBox="0 0 30 30" fill="none" xmlns="http://www.w3.org/2000/svg">
<g clip-path="url(#clip0)">
<path d="M8.2937 0.191209C8.03471 -0.0589744 7.62194 -0.0517617 7.37175 0.207224C7.12774 0.459913 7.12774 0.860463 7.37175 1.11309L21.2541 14.9967L7.37047 28.879C7.11148 29.1292 7.10433 29.5419 7.35445 29.801C7.60464 30.06 8.01735 30.0671 8.2764 29.817C8.28184 29.8117 8.28716 29.8064 8.29241 29.801L22.6364 15.457C22.8909 15.2025 22.8909 14.7897 22.6364 14.5351L8.2937 0.191209Z" fill="#F44336"/>
<path d="M7.8321 29.9927C7.47202 29.9934 7.1796 29.7019 7.17893 29.3418C7.17862 29.1682 7.24757 29.0017 7.37049 28.8791L21.2541 14.9967L7.37049 1.11444C7.11554 0.85949 7.11554 0.446165 7.37049 0.191213C7.62544 -0.0637378 8.03877 -0.0637378 8.29372 0.191213L22.6377 14.5352C22.8922 14.7897 22.8922 15.2025 22.6377 15.4571L8.29372 29.801C8.17147 29.9237 8.00533 29.9927 7.8321 29.9927Z" fill="black"/>
</g>
<defs>
<clipPath id="clip0">
<rect width="30" height="30" fill="white"/>
</clipPath>
</defs>
</svg>
