<svg width="50" height="50" viewBox="0 0 50 50" fill="none" xmlns="http://www.w3.org/2000/svg">
<g clip-path="url(#clip0)">
<path d="M49.6812 7.97441C49.4033 7.62529 48.9813 7.42188 48.5352 7.42188H13.1661L12.4513 4.80078C11.9312 2.89414 10.1878 1.5625 8.21152 1.5625H1.46484C0.655859 1.5625 0 2.21836 0 3.02734C0 3.83633 0.655859 4.49219 1.46484 4.49219H8.21152C8.87031 4.49219 9.45137 4.93604 9.62471 5.57158L17.2363 33.4805C17.7563 35.3871 19.4998 36.7188 21.4761 36.7188H42.6758C43.4848 36.7188 44.1406 36.0629 44.1406 35.2539C44.1406 34.4449 43.4848 33.7891 42.6758 33.7891H21.476C20.8172 33.7891 20.2361 33.3452 20.0628 32.7097L19.5582 30.8594H41.484C43.5437 30.8594 45.3047 29.4575 45.7666 27.4503L49.9627 9.21514C50.0628 8.78037 49.9592 8.32353 49.6812 7.97441V7.97441ZM42.9115 26.7934C42.7576 27.4624 42.1706 27.9297 41.484 27.9297H18.7592L13.9651 10.3516H46.695L42.9115 26.7934ZM22.168 39.6484C19.7448 39.6484 17.7734 41.6198 17.7734 44.043C17.7734 46.4661 19.7448 48.4375 22.168 48.4375C24.5911 48.4375 26.5625 46.4661 26.5625 44.043C26.5625 41.6198 24.5911 39.6484 22.168 39.6484ZM22.168 45.5078C21.3603 45.5078 20.7031 44.8507 20.7031 44.043C20.7031 43.2353 21.3603 42.5781 22.168 42.5781C22.9757 42.5781 23.6328 43.2353 23.6328 44.043C23.6328 44.8507 22.9757 45.5078 22.168 45.5078ZM33.8867 22.0703C33.0777 22.0703 32.4219 22.7262 32.4219 23.5352C32.4219 24.3441 33.0777 25 33.8867 25C34.6957 25 35.3516 24.3441 35.3516 23.5352C35.3516 22.7262 34.6957 22.0703 33.8867 22.0703ZM28.0273 16.2109C28.8363 16.2109 29.4922 15.5551 29.4922 14.7461C29.4922 13.9371 28.8363 13.2812 28.0273 13.2812C27.2184 13.2812 26.5625 13.9371 26.5625 14.7461C26.5625 15.5551 27.2184 16.2109 28.0273 16.2109ZM39.7461 39.6484C37.3229 39.6484 35.3516 41.6198 35.3516 44.043C35.3516 46.4661 37.3229 48.4375 39.7461 48.4375C42.1692 48.4375 44.1406 46.4661 44.1406 44.043C44.1406 41.6198 42.1692 39.6484 39.7461 39.6484ZM39.7461 45.5078C38.9384 45.5078 38.2812 44.8507 38.2812 44.043C38.2812 43.2353 38.9384 42.5781 39.7461 42.5781C40.5538 42.5781 41.2109 43.2353 41.2109 44.043C41.2109 44.8507 40.5538 45.5078 39.7461 45.5078ZM27.2148 24.754C27.8851 25.2008 28.7954 25.0238 29.2462 24.3477L35.1056 15.5586C35.5543 14.8854 35.3724 13.976 34.6992 13.5272C34.0262 13.0786 33.1167 13.2604 32.6679 13.9336L26.8085 22.7227C26.3598 23.3957 26.5417 24.3052 27.2148 24.754Z" fill="url(#paint0_linear)"/>
</g>
<defs>
<linearGradient id="paint0_linear" x1="25" y1="48.4375" x2="25" y2="1.5625" gradientUnits="userSpaceOnUse">
<stop stop-color="#FD3A84"/>
<stop offset="1" stop-color="#FFA68D"/>
</linearGradient>
<clipPath id="clip0">
<rect width="50" height="50" fill="white"/>
</clipPath>
</defs>
</svg>
