<svg width="22" height="22" viewBox="0 0 22 22" fill="none" xmlns="http://www.w3.org/2000/svg">
<g clip-path="url(#clip0)">
<path d="M15.267 17.4509C14.9032 17.6242 14.2077 17.7753 13.6892 17.7882C12.1233 17.83 11.8193 16.6884 11.8068 15.8606V9.77197H15.7344V6.81061H11.8203V1.82837C11.8203 1.82837 9.00186 1.82837 8.95594 1.82837C8.90881 1.82837 8.82664 1.86975 8.81492 1.97429C8.64735 3.49916 7.93377 6.17538 4.96667 7.24551V9.77185H6.94617V16.162C6.94617 18.3502 8.56004 21.4587 12.8208 21.3853C14.2584 21.3606 15.855 20.759 16.2076 20.2395L15.267 17.4509Z" fill="#FCF1F1"/>
</g>
<defs>
<clipPath id="clip0">
<rect width="20.8621" height="20.8621" fill="white" transform="translate(0.426758 0.142242)"/>
</clipPath>
</defs>
</svg>
