<svg width="22" height="21" viewBox="0 0 22 21" fill="none" xmlns="http://www.w3.org/2000/svg">
<g clip-path="url(#clip0)">
<path d="M20.5987 5.63308C20.3733 4.7952 19.7127 4.1347 18.8749 3.90909C17.3444 3.49033 11.2223 3.49033 11.2223 3.49033C11.2223 3.49033 5.10049 3.49033 3.57 3.89321C2.74836 4.11859 2.07163 4.79532 1.84625 5.63308C1.44348 7.16345 1.44348 10.3372 1.44348 10.3372C1.44348 10.3372 1.44348 13.527 1.84625 15.0414C2.07186 15.8791 2.73224 16.5396 3.57012 16.7652C5.11661 17.1841 11.2226 17.1841 11.2226 17.1841C11.2226 17.1841 17.3444 17.1841 18.8749 16.7812C19.7128 16.5557 20.3733 15.8953 20.5989 15.0575C21.0015 13.527 21.0015 10.3533 21.0015 10.3533C21.0015 10.3533 21.0177 7.16345 20.5987 5.63308ZM9.2732 13.2693V7.40518L14.364 10.3372L9.2732 13.2693Z" fill="#FCF1F1"/>
</g>
<defs>
<clipPath id="clip0">
<rect width="20.8621" height="20.8621" fill="white" transform="translate(0.801697 0.0905151)"/>
</clipPath>
</defs>
</svg>
